<?xml version="1.0" encoding="UTF-8"?>
<!DOCTYPE svg PUBLIC "-//W3C//DTD SVG 1.1//EN" "http://www.w3.org/Graphics/SVG/1.1/DTD/svg11.dtd">
<!-- Creator: CorelDRAW 2020 (64 Bit) -->
<svg xmlns="http://www.w3.org/2000/svg" xml:space="preserve" width="75mm" height="16mm" version="1.1" style="shape-rendering:geometricPrecision; text-rendering:geometricPrecision; image-rendering:optimizeQuality; fill-rule:evenodd; clip-rule:evenodd"
viewBox="0 0 7500 1600"
 xmlns:xlink="http://www.w3.org/1999/xlink"
 xmlns:xodm="http://www.corel.com/coreldraw/odm/2003">
 <defs>
  <style type="text/css">
   <![CDATA[
    .fil4 {fill:url(#id0)}
    .fil2 {fill:url(#id1)}
    .fil3 {fill:url(#id2)}
    .fil0 {fill:url(#id3);fill-rule:nonzero}
    .fil1 {fill:url(#id4);fill-rule:nonzero}
   ]]>
  </style>
  <linearGradient id="id0" gradientUnits="userSpaceOnUse" x1="782.82" y1="1255.78" x2="725.1" y2="158.88">
   <stop offset="0" style="stop-opacity:1; stop-color:#F14E0B"/>
   <stop offset="1" style="stop-opacity:1; stop-color:#F6CA11"/>
  </linearGradient>
  <linearGradient id="id1" gradientUnits="userSpaceOnUse" xlink:href="#id0" x1="1517.48" y1="1436.34" x2="1510.03" y2="-61.6">
  </linearGradient>
  <linearGradient id="id2" gradientUnits="userSpaceOnUse" x1="1103.66" y1="1334.65" x2="1130.8" y2="-149.8">
   <stop offset="0" style="stop-opacity:1; stop-color:#003399"/>
   <stop offset="1" style="stop-opacity:1; stop-color:aqua"/>
  </linearGradient>
  <linearGradient id="id3" gradientUnits="userSpaceOnUse" xlink:href="#id2" x1="1344.64" y1="1393.73" x2="1360.1" y2="-273.27">
  </linearGradient>
  <linearGradient id="id4" gradientUnits="objectBoundingBox" x1="58.5836%" y1="143.095%" x2="99.2393%" y2="0%">
   <stop offset="0" style="stop-opacity:1; stop-color:#0058AB"/>
   <stop offset="1" style="stop-opacity:1; stop-color:aqua"/>
  </linearGradient>
 </defs>
 <g id="Camada_x0020_1">
  <metadata id="CorelCorpID_0Corel-Layer"/>
  <path class="fil0" d="M1714.01 157.67l0 239.54 322.42 -47.65 -322.42 -191.89zm1254.25 19.44c5.39,0.7 9.19,5.64 8.49,11.03 -0.7,5.39 -5.65,9.18 -11.03,8.48l-886.72 -115.63 0 1466.23 887.75 -116.92c5.38,-0.71 10.33,3.09 11.03,8.48 0.7,5.39 -3.1,10.33 -8.49,11.03l-910.04 119.86 0 -0.01 -345.24 -84.96 0 -1063.58 345.19 -50.84 0 -34.57 -329.76 -196.32 329.81 -80.82 0.01 0 909 118.54z"/>
  <polygon class="fil1" points="3444.12,1181.13 3442.07,461.14 3305.1,461.14 3039.9,908.56 2770.59,461.14 2632.76,461.14 2632.76,1181.13 2789.1,1181.13 2789.1,758.39 2999.78,1105.02 3074.87,1105.02 3286.58,749.13 3287.61,1181.13 "/>
  <path id="1" class="fil1" d="M4145.77 906.5c0,-177.94 -125.49,-286.96 -288,-286.96 -168.68,0 -295.2,119.31 -295.2,284.91 0,164.57 124.46,284.91 315.77,284.91 99.77,0 176.91,-30.86 228.34,-89.49l-85.37 -92.57c-38.06,36 -80.23,53.49 -138.85,53.49 -84.35,0 -142.97,-42.17 -158.4,-111.09l418.62 0c1.03,-13.37 3.09,-30.85 3.09,-43.2zm-286.97 -165.59c72,0 124.45,45.25 135.77,115.2l-272.57 0c11.31,-70.98 63.77,-115.2 136.8,-115.2z"/>
  <path id="2" class="fil1" d="M4566.45 1041.25c-17.49,13.37 -41.15,20.57 -64.8,20.57 -43.2,0 -68.92,-25.72 -68.92,-73.03l0 -225.26 137.83 0 0 -123.42 -137.83 0 0 -134.74 -160.45 0 0 134.74 -85.37 0 0 123.42 85.37 0 0 227.32c0,131.65 76.11,198.51 206.74,198.51 49.37,0 97.71,-11.32 130.63,-34.97l-43.2 -113.14z"/>
  <path id="3" class="fil1" d="M4923.35 619.54c-88.45,0 -177.94,23.65 -238.62,66.85l57.6 112.12c40.11,-31.89 100.8,-51.43 159.42,-51.43 86.4,0 127.55,40.11 127.55,109.03l-127.55 0c-168.68,0 -237.59,67.88 -237.59,165.59 0,95.66 77.14,167.66 206.74,167.66 81.25,0 138.85,-26.74 168.68,-77.14l0 68.91 150.17 0 0 -315.77c0,-167.65 -97.71,-245.82 -266.4,-245.82zm-12.34 461.82c-56.57,0 -90.51,-26.74 -90.51,-66.86 0,-37.02 23.65,-64.8 98.74,-64.8l110.06 0 0 56.57c-18.52,50.4 -64.8,75.09 -118.29,75.09z"/>
  <polygon id="4" class="fil1" points="5334.77,1181.13 5495.22,1181.13 5495.22,417.94 5334.77,417.94 "/>
  <path id="5" class="fil1" d="M5933.03 523.35l-284.73 0 0 657.78 152.23 0 0 -181.36 132.5 0c175.72,0 285.66,-91.15 285.66,-237.74 0,-147.53 -109.94,-238.68 -285.66,-238.68zm-8.46 352.38l-124.04 0 0 -228.34 124.04 0c93.03,0 140.01,42.29 140.01,114.64 0,71.42 -46.98,113.7 -140.01,113.7z"/>
  <path id="6" class="fil1" d="M6682.89 675.58l-142.83 342.99 -141.89 -342.99 -151.29 0 218.95 509.31 -1.88 4.7c-19.73,45.1 -42.29,62.96 -82.69,62.96 -29.13,0 -60.14,-12.22 -82.7,-31.95l-53.56 104.3c32.89,29.13 89.27,46.05 140.96,46.05 91.14,0 160.68,-36.65 209.54,-158.81l228.35 -536.56 -140.96 0z"/>
  <path class="fil2" d="M1690.32 400.71l0 -239.61 -320.36 286.95 320.36 -47.34zm0 1078.23l0 -1054.31 -345.68 51.08 0 918.02 345.68 85.21zm-345.68 -1039.89l315.68 -282.76 -315.68 77.34 0 205.42z"/>
  <path class="fil3" d="M980.94 505.54l300.69 -44.44 -300.69 -128.79 0 173.23zm340.01 882.45l0 -908.78 -340.01 50.25 0 775.05 340.01 83.48zm-316.12 -1071.11l316.12 135.36 0 -212.78 -316.12 77.42z"/>
  <path class="fil4" d="M957.25 335.54l-303.16 218.31 303.16 -44.81 0 -173.5zm-38.24 2.41l-310.62 76.12 0 145.08 310.62 -221.2zm-310.62 246.57l0 628.37 348.86 85.78 0 -765.71 -348.86 51.56z"/>
 </g>
</svg>
